# xmcd
#
# Track frame offsets:
#	150
#	25163
#	47087
#	67323
#	86392
#	110889
#	138972
#	154120
#	187870
#
# Disc length: 2789 seconds
#
# Revision: 1
# Processed by: cddbd v1.5.1PL0 Copyright (c) Steve Scherf et al.
# Submitted via: audiograbber 1.83.01
#
DISCID=760ae309
DTITLE=Ronnie Peterson - Red Alert
DYEAR=2004
DGENRE=Blues
TTITLE0=With Friends Like You, Who Needs The Blues
TTITLE1=Angel Of Love
TTITLE2=Red Alert
TTITLE3=Tel Aviv Blues
TTITLE4=King Bee
TTITLE5=It Hurts Me Too
TTITLE6=Merry-Go-Round
TTITLE7=Bad Boy
TTITLE8=Take A Chance On Me
EXTD=
EXTT0=
EXTT1=
EXTT2=
EXTT3=
EXTT4=
EXTT5=
EXTT6=
EXTT7=
EXTT8=
PLAYORDER=
